<?xml version="1.0" standalone="no"?>
<!DOCTYPE svg PUBLIC "-//W3C//DTD SVG 20010904//EN"
 "http://www.w3.org/TR/2001/REC-SVG-20010904/DTD/svg10.dtd">
<svg version="1.0" xmlns="http://www.w3.org/2000/svg"
 width="700.000000pt" height="700.000000pt" viewBox="0 0 700.000000 700.000000"
 preserveAspectRatio="xMidYMid meet">
<metadata>
Created by potrace 1.14, written by Peter Selinger 2001-2017
</metadata>
<g transform="translate(0.000000,700.000000) scale(0.100000,-0.100000)"
fill="#000000" stroke="none">
<path d="M475 6934 c-132 -28 -225 -76 -311 -162 -71 -72 -133 -184 -153 -277
-6 -32 -10 -304 -10 -760 -1 -600 2 -720 15 -775 51 -219 247 -400 464 -427
25 -4 1393 -6 3040 -6 2808 0 2999 1 3060 17 98 27 177 73 255 151 68 68 122
156 140 230 5 17 11 37 14 45 10 30 10 1463 0 1520 -6 30 -19 72 -30 94 -10
22 -19 44 -19 49 0 15 -79 117 -125 160 -49 48 -108 83 -194 116 l-66 26
-3030 1 c-1667 1 -3039 0 -3050 -2z"/>
<path d="M1144 4173 c-17 -8 -39 -29 -50 -47 -17 -28 -18 -59 -19 -351 -2
-363 -6 -393 -77 -534 -47 -94 -137 -195 -206 -230 -156 -80 -341 -59 -468 53
-126 110 -102 298 46 365 85 39 168 24 249 -43 24 -20 48 -36 54 -37 7 -1 25
-2 40 -3 34 -3 87 29 104 64 33 64 5 127 -86 193 -88 65 -178 91 -295 85 -81
-4 -102 -10 -170 -42 -171 -83 -268 -240 -261 -428 5 -168 84 -299 239 -399
244 -159 570 -129 790 71 121 111 240 323 262 467 3 21 8 47 12 58 9 31 10
656 0 692 -17 63 -101 96 -164 66z"/>
<path d="M5775 4183 c-34 -9 -73 -42 -82 -70 -11 -30 -10 -670 1 -713 3 -14
11 -47 17 -74 53 -225 223 -451 406 -541 295 -144 657 -50 817 214 81 132 84
314 10 452 -142 263 -507 320 -721 113 -51 -48 -57 -62 -55 -122 4 -84 122
-128 192 -72 70 56 100 71 154 77 171 18 294 -156 220 -312 -19 -42 -89 -106
-141 -130 -127 -61 -287 -54 -402 17 -54 34 -78 57 -128 123 -59 78 -88 137
-114 232 -21 72 -22 102 -23 393 -2 336 -5 359 -51 393 -27 19 -70 28 -100 20z"/>
<path d="M2872 4159 c-37 -8 -68 -33 -86 -69 -8 -17 -12 -74 -11 -175 1 -127
4 -155 20 -178 51 -78 175 -69 210 16 9 22 13 77 11 182 -1 145 -2 152 -26
182 -30 36 -73 52 -118 42z"/>
<path d="M4066 4155 c-21 -7 -38 -15 -39 -17 -1 -1 -11 -14 -22 -26 -17 -21
-20 -41 -22 -165 -1 -78 3 -159 8 -179 27 -105 177 -114 219 -14 13 33 16 68
15 171 -2 72 -3 138 -4 147 -2 27 -52 77 -87 87 -20 6 -43 4 -68 -4z"/>
<path d="M1988 4022 c-53 -32 -56 -51 -61 -387 -2 -170 -8 -326 -12 -345 -28
-140 -38 -179 -66 -262 -28 -81 -63 -161 -123 -275 -28 -53 -128 -188 -191
-259 -33 -37 -65 -76 -72 -88 -32 -55 1 -139 67 -166 64 -26 139 24 250 170
19 25 38 47 41 50 19 15 128 194 169 278 70 142 137 345 155 467 3 22 7 54 10
70 13 89 15 144 16 397 0 300 -2 317 -55 352 -32 21 -93 20 -128 -2z"/>
<path d="M4877 4018 c-16 -11 -33 -33 -38 -47 -11 -28 -14 -531 -4 -616 19
-167 38 -256 85 -396 61 -183 159 -368 278 -523 72 -93 160 -183 190 -194 91
-32 181 50 158 143 -3 13 -32 53 -63 87 -52 59 -193 241 -193 251 0 2 -18 37
-40 77 -80 146 -137 319 -165 500 -8 53 -14 190 -14 362 -2 304 -6 329 -59
361 -41 23 -100 21 -135 -5z"/>
<path d="M2845 3426 c-17 -7 -40 -26 -50 -42 -18 -28 -19 -56 -19 -664 0 -708
-3 -680 69 -714 58 -28 126 -7 158 49 18 31 19 1269 2 1312 -24 58 -101 86
-160 59z"/>
<path d="M4042 3420 c-61 -37 -60 -22 -58 -714 1 -701 -2 -666 67 -702 62 -32
149 9 167 78 4 16 7 309 7 651 -1 693 3 657 -70 691 -44 21 -73 20 -113 -4z"/>
<path d="M1770 1983 c-50 -18 -84 -79 -75 -134 6 -33 25 -57 121 -153 l114
-115 0 -48 c0 -47 -2 -50 -34 -61 -50 -18 -123 -87 -158 -149 -16 -29 -37 -53
-46 -54 -66 -4 -77 2 -187 112 -79 78 -121 112 -147 119 -87 24 -166 -57 -143
-147 3 -15 44 -66 91 -113 46 -48 84 -91 84 -97 0 -5 -26 -35 -57 -64 -105
-99 -123 -125 -123 -173 0 -29 7 -52 21 -70 22 -28 66 -54 87 -50 6 1 23 2 37
3 22 1 105 74 257 226 4 4 27 9 51 11 43 4 44 4 63 -38 24 -54 110 -140 163
-164 39 -17 41 -20 41 -64 0 -44 -3 -48 -96 -140 -116 -116 -135 -141 -139
-187 -9 -88 80 -153 162 -118 16 7 67 50 112 95 l83 83 86 -86 c48 -47 100
-91 116 -97 83 -31 172 44 156 132 -7 34 -25 58 -123 157 -110 112 -114 118
-116 161 -2 44 0 46 33 58 51 19 137 101 166 159 24 49 24 49 71 48 47 -1 50
-4 159 -113 120 -121 154 -140 213 -120 37 13 73 51 80 83 10 55 -5 88 -72
156 -36 36 -77 78 -90 93 l-24 25 83 83 c92 92 114 130 101 176 -15 52 -40 79
-84 91 -62 18 -84 5 -209 -117 -60 -59 -119 -109 -131 -112 -46 -12 -72 0 -96
45 -30 56 -94 120 -153 152 -45 25 -48 28 -48 67 0 39 6 47 116 158 101 102
116 122 121 157 7 52 -9 90 -50 119 -67 45 -107 30 -218 -82 l-86 -87 -71 72
c-113 114 -152 134 -212 112z m347 -739 c41 -26 56 -60 50 -111 -7 -67 -48
-103 -116 -103 -42 0 -54 5 -80 30 -41 41 -50 93 -25 140 34 63 112 83 171 44z"/>
<path d="M5380 1732 c-46 -22 -74 -78 -64 -127 5 -29 30 -60 120 -151 113
-114 114 -116 114 -162 0 -46 -1 -48 -41 -65 -52 -22 -138 -109 -162 -163 -18
-39 -20 -40 -63 -39 -43 2 -49 6 -163 118 -80 79 -126 117 -142 118 -96 6
-149 -37 -149 -124 0 -35 9 -47 95 -136 l94 -97 -80 -80 c-44 -43 -87 -91 -95
-106 -47 -89 31 -190 130 -168 30 7 64 33 155 123 124 123 117 119 201 108 4
-1 12 -17 19 -36 17 -47 105 -136 158 -161 41 -18 42 -21 43 -65 0 -46 -2 -48
-115 -163 -63 -65 -115 -123 -116 -129 0 -7 -3 -24 -5 -39 -10 -58 43 -116
109 -122 50 -5 74 10 168 104 l81 82 92 -90 c73 -72 99 -92 130 -98 64 -12
131 36 136 97 6 63 0 72 -117 191 -113 114 -118 121 -120 163 -1 43 0 45 51
73 62 35 109 82 144 142 32 56 37 59 82 55 31 -3 53 -20 154 -119 65 -64 125
-116 134 -117 9 0 26 -2 37 -4 27 -5 81 22 100 51 23 36 26 82 8 118 -8 17
-51 66 -94 109 -44 43 -79 80 -79 82 0 2 36 41 81 85 83 84 112 131 104 171
-7 36 -37 72 -78 92 -59 29 -92 12 -219 -114 -60 -60 -115 -110 -121 -110 -72
-9 -81 -5 -104 42 -30 59 -95 124 -155 155 -46 24 -47 25 -45 69 2 43 7 50
116 159 104 105 114 117 118 158 7 58 -15 100 -63 123 -63 30 -96 16 -199 -86
l-91 -89 -88 86 c-113 109 -139 120 -206 86z m348 -721 c39 -21 62 -61 62
-108 0 -38 -5 -50 -34 -79 -30 -30 -40 -34 -84 -34 -41 0 -55 5 -81 29 -17 16
-31 35 -32 43 0 7 -2 22 -4 33 -18 86 92 160 173 116z"/>
</g>
</svg>
